<?xml version="1.0" encoding="UTF-8" standalone="no"?>
<svg
   viewBox="0 0 793.7007874015749 1122.5196850393702"
   width="793.7007874015749"
   height="1122.5196850393702"
   version="1.1"
   id="svg28"
   sodipodi:docname="WidgetGauge.svg"
   inkscape:version="1.4 (86a8ad7, 2024-10-11)"
   inkscape:export-filename="WidgetGauge.svg"
   inkscape:export-xdpi="96"
   inkscape:export-ydpi="96"
   xmlns:inkscape="http://www.inkscape.org/namespaces/inkscape"
   xmlns:sodipodi="http://sodipodi.sourceforge.net/DTD/sodipodi-0.dtd"
   xmlns="http://www.w3.org/2000/svg"
   xmlns:svg="http://www.w3.org/2000/svg">
  <sodipodi:namedview
     id="namedview28"
     pagecolor="#ffffff"
     bordercolor="#666666"
     borderopacity="1.0"
     inkscape:showpageshadow="2"
     inkscape:pageopacity="0.0"
     inkscape:pagecheckerboard="0"
     inkscape:deskcolor="#d1d1d1"
     inkscape:zoom="2.3786089"
     inkscape:cx="549.48084"
     inkscape:cy="813.71091"
     inkscape:window-width="2339"
     inkscape:window-height="1211"
     inkscape:window-x="829"
     inkscape:window-y="565"
     inkscape:window-maximized="0"
     inkscape:current-layer="g28" />
  <desc
     id="desc1">WidgetGauge.dxf - scale = 1.000000, origin = (0.000000, 0.000000), method = manual</desc>
  <defs
     id="defs4">
    <marker
       id="DistanceX"
       orient="auto"
       refX="0.0"
       refY="0.0"
       style="overflow:visible">
      <path
         d="M 3,-3 L -3,3 M 0,-5 L  0,5"
         style="stroke:#000000; stroke-width:0.5"
         id="path1" />
    </marker>
    <pattern
       id="Hatch"
       patternUnits="userSpaceOnUse"
       width="8"
       height="8"
       x="0"
       y="0">
      <path
         d="M8 4 l-4,4"
         stroke="#000000"
         stroke-width="0.25"
         linecap="square"
         id="path2" />
      <path
         d="M6 2 l-4,4"
         stroke="#000000"
         stroke-width="0.25"
         linecap="square"
         id="path3" />
      <path
         d="M4 0 l-4,4"
         stroke="#000000"
         stroke-width="0.25"
         linecap="square"
         id="path4" />
    </pattern>
    <symbol
       id="*MODEL_SPACE" />
    <symbol
       id="*PAPER_SPACE" />
    <pattern
       id="EMFhbasepattern"
       patternUnits="userSpaceOnUse"
       width="6"
       height="6"
       x="0"
       y="0" />
  </defs>
  <g
     inkscape:groupmode="layer"
     inkscape:label="0"
     id="g4" />
  <g
     inkscape:groupmode="layer"
     inkscape:label="Design Layer-1"
     id="g28">
    <path
       d="m 395.89079,827.96634 a 5.11023,5.11023 0 0 1 -10.22046,0 5.11023,5.11023 0 0 1 10.22046,0 z"
       style="fill:#000000"
       id="path28" />
    <path
       style="fill:#91d5a6;fill-opacity:1;stroke-width:0.594555"
       d="m 313.03316,804.41924 c -0.81752,-0.28283 -29.44534,-8.71247 -63.61738,-18.73255 -34.17204,-10.02007 -62.23435,-18.32103 -62.36069,-18.44656 -0.31818,-0.31616 3.12368,-10.58114 6.06926,-18.10095 3.04961,-7.78538 11.22104,-24.27161 15.23017,-30.72757 l 3.02079,-4.86442 26.60081,17.08336 c 73.72807,47.34907 86.38694,55.55529 86.22284,55.89472 -0.0979,0.20247 -1.41125,2.77609 -2.91856,5.71914 -1.5073,2.94304 -3.34654,7.02318 -4.08718,9.06696 -1.38247,3.8149 -1.61475,3.98843 -4.16006,3.10787 z"
       id="path32" />
    <path
       style="fill:#65c1a5;fill-opacity:1;stroke-width:0.594555"
       d="m 178.36388,820.33712 c 0.46032,-9.1522 1.83482,-21.4056 3.34424,-29.81316 1.64857,-9.18267 4.03453,-19.08594 4.86758,-20.20362 0.6333,-0.84967 5.60252,0.47439 46.48982,12.38724 84.90571,24.73798 81.46255,23.66653 81.39566,25.32871 -0.0321,0.79761 -0.52156,4.6608 -1.08768,8.58487 -0.56613,3.92406 -1.15397,8.00419 -1.30632,9.06696 l -0.27702,1.9323 h -66.8963 -66.8963 z"
       id="path33" />
    <path
       style="fill:#c9e89a;fill-opacity:1;stroke-width:0.594555"
       d="m 268.59717,748.6447 c -30.8164,-19.83886 -56.03296,-36.29994 -56.0368,-36.58017 -0.0108,-0.78712 7.02544,-10.68548 12.52828,-17.62441 2.72295,-3.43355 9.58353,-10.91202 15.24573,-16.61882 10.11469,-10.19437 10.31402,-10.35569 11.38685,-9.2156 3.43679,3.65224 86.40038,99.77142 86.61422,100.34869 0.14199,0.38331 -1.50066,2.436 -3.65032,4.56154 -2.14968,2.12553 -5.14311,5.53679 -6.65208,7.58057 -1.50897,2.04378 -2.89265,3.69411 -3.07483,3.66741 -0.18218,-0.0267 -25.54466,-16.28036 -56.36105,-36.11921 z"
       id="path34" />
    <path
       style="fill:#eaf79b;fill-opacity:1;stroke-width:0.594555"
       d="m 296.13381,717.59163 c -24.10333,-27.80875 -43.73958,-50.80434 -43.63611,-51.10131 0.38485,-1.10456 11.78285,-9.76801 20.70028,-15.73398 10.00158,-6.6913 27.71212,-16.2423 28.55375,-15.39856 0.28456,0.28528 12.83639,27.49623 27.89294,60.46879 15.05656,32.97256 27.5039,60.15776 27.66077,60.41157 0.15686,0.25381 -2.4495,2.09599 -5.79192,4.09375 -3.34242,1.99775 -7.30975,4.57476 -8.8163,5.72669 l -2.73918,2.09442 z"
       id="path35" />
    <path
       style="fill:#fcffba;fill-opacity:1;stroke-width:0.594555"
       d="m 357.69984,753.80857 c -0.61853,-1.42365 -12.56416,-27.60435 -26.54586,-58.17934 -13.9817,-30.57498 -26.03797,-56.96953 -26.79173,-58.65454 l -1.37045,-3.06367 9.03392,-3.57916 c 13.96338,-5.53218 27.12213,-9.2927 41.61188,-11.89187 4.70625,-0.84421 6.36539,-0.95615 6.36539,-0.42949 0,0.39178 4.12796,29.45402 9.17323,64.58276 5.04527,35.12873 9.25918,64.7821 9.36424,65.89638 l 0.19101,2.02596 -4.75644,1.03575 c -4.0287,0.87728 -10.0471,2.76323 -14.11541,4.42326 -0.81759,0.33361 -1.27159,-0.1217 -2.15978,-2.16604 z"
       id="path36" />
    <path
       style="fill:#fffbba;fill-opacity:1;stroke-width:0.594555"
       d="m 380.21775,749.92323 c 3.7e-4,-0.35536 -18.5302,-129.25098 -18.79961,-130.76703 -0.30675,-1.72619 -0.19072,-1.88161 1.65434,-2.21589 11.85716,-2.14822 45.59394,-2.08255 55.5065,0.10805 l 1.79599,0.3969 -9.52879,66.22272 -9.52879,66.22271 -10.54988,0.0702 c -5.80243,0.0386 -10.54982,0.0217 -10.54976,-0.0376 z"
       id="path37" />
    <path
       style="fill:#fee492;fill-opacity:1;stroke-width:0.594555"
       d="m 416.48571,754.15236 c -3.10655,-1.09282 -7.45423,-2.32754 -9.66152,-2.74382 -2.61714,-0.49358 -4.01324,-1.03827 -4.01324,-1.56576 0,-0.95008 18.30541,-128.68955 18.7697,-130.97937 l 0.31522,-1.55463 6.36188,1.13531 c 7.86125,1.40289 20.55978,4.58829 28.06314,7.0396 5.91804,1.93339 19.92789,7.35012 21.32589,8.24538 0.63972,0.40968 -5.14541,13.56842 -27.05225,61.53246 -15.3263,33.55624 -27.99977,60.98129 -28.16327,60.94455 -0.16351,-0.0367 -2.839,-0.96091 -5.94555,-2.05372 z"
       id="path38" />
    <path
       style="fill:#fdc771;fill-opacity:1;stroke-width:0.594555"
       d="m 437.13016,764.93385 c -2.21627,-1.71035 -6.03692,-4.15789 -8.49035,-5.43896 -3.06147,-1.59856 -4.38318,-2.60899 -4.21343,-3.22106 0.32196,-1.16084 55.04603,-120.8567 55.43064,-121.24132 0.39399,-0.39399 10.50254,4.64661 17.48815,8.7204 10.06049,5.86697 30.2835,20.27532 31.72001,22.59965 0.28699,0.46435 -86.67478,101.39112 -87.54448,101.60305 -0.19853,0.0484 -2.17427,-1.31141 -4.39054,-3.02176 z"
       id="path39" />
    <path
       style="fill:#fda159;fill-opacity:1;stroke-width:0.594555"
       d="m 453.94267,781.71366 c -1.14452,-1.69095 -4.11989,-5.23051 -6.61193,-7.86567 l -4.53099,-4.79123 42.75907,-49.34805 c 23.5175,-27.14143 43.38473,-49.98019 44.1494,-50.7528 l 1.39032,-1.40475 9.16113,9.13396 c 9.8797,9.8504 16.6608,17.81021 24.24961,28.46472 3.8678,5.43031 4.66155,6.89652 4.05055,7.48226 -0.89574,0.85871 -110.87937,71.56648 -111.86461,71.91704 -0.36939,0.13143 -1.60803,-1.14453 -2.75255,-2.83548 z"
       id="path40" />
    <path
       style="fill:#f46c43;fill-opacity:1;stroke-width:0.594555"
       d="m 465.44301,803.98687 c -1.0638,-3.13167 -4.84894,-11.58985 -6.47177,-14.46163 l -1.87256,-3.31371 56.53559,-36.31438 56.53559,-36.31437 2.3255,3.65752 c 3.47609,5.46715 11.25807,20.6712 14.36309,28.06192 2.67659,6.37094 8.15918,21.7275 7.85167,21.99227 -0.21688,0.18674 -128.15289,37.73285 -128.57231,37.73285 -0.18775,0 -0.50041,-0.46822 -0.6948,-1.04047 z"
       id="path41" />
    <path
       style="fill:#d53e4f;fill-opacity:1;stroke-width:0.594555"
       d="m 468.7858,823.60718 c -0.0114,-2.20729 -0.42127,-6.15365 -0.91079,-8.76969 -0.48953,-2.61604 -1.04212,-5.57559 -1.22799,-6.57677 -0.33734,-1.81707 -0.33009,-1.82254 4.0322,-3.04332 2.40358,-0.67263 30.99134,-9.05232 63.52836,-18.62153 32.53702,-9.56921 59.59563,-17.52022 60.13026,-17.66892 0.80511,-0.22393 1.3397,1.24457 3.11281,8.55077 3.49542,14.40304 5.24733,26.66174 6.08265,42.56213 l 0.39824,7.58057 h -67.5625 -67.5625 z"
       id="path42" />
  </g>
</svg>
