<?xml version="1.0" encoding="UTF-8" standalone="no"?>
<svg
   viewBox="0 0 793.7007874015749 1122.5196850393702"
   width="793.7007874015749"
   height="1122.5196850393702"
   version="1.1"
   id="svg30"
   sodipodi:docname="WidgetGaugeArrow.svg"
   inkscape:version="1.4 (86a8ad7, 2024-10-11)"
   inkscape:export-filename="WidgetGaugeArrow.svg"
   inkscape:export-xdpi="96"
   inkscape:export-ydpi="96"
   xmlns:inkscape="http://www.inkscape.org/namespaces/inkscape"
   xmlns:sodipodi="http://sodipodi.sourceforge.net/DTD/sodipodi-0.dtd"
   xmlns="http://www.w3.org/2000/svg"
   xmlns:svg="http://www.w3.org/2000/svg">
  <sodipodi:namedview
     id="namedview30"
     pagecolor="#ffffff"
     bordercolor="#666666"
     borderopacity="1.0"
     inkscape:showpageshadow="2"
     inkscape:pageopacity="0.0"
     inkscape:pagecheckerboard="0"
     inkscape:deskcolor="#d1d1d1"
     inkscape:zoom="1.6819305"
     inkscape:cx="117.12732"
     inkscape:cy="902.23706"
     inkscape:window-width="1147"
     inkscape:window-height="1211"
     inkscape:window-x="1919"
     inkscape:window-y="643"
     inkscape:window-maximized="0"
     inkscape:current-layer="g30" />
  <desc
     id="desc1">WidgetGaugeArrow.dxf - scale = 1.000000, origin = (0.000000, 0.000000), method = manual</desc>
  <defs
     id="defs4">
    <marker
       id="DistanceX"
       orient="auto"
       refX="0.0"
       refY="0.0"
       style="overflow:visible">
      <path
         d="M 3,-3 L -3,3 M 0,-5 L  0,5"
         style="stroke:#000000; stroke-width:0.5"
         id="path1" />
    </marker>
    <pattern
       id="Hatch"
       patternUnits="userSpaceOnUse"
       width="8"
       height="8"
       x="0"
       y="0">
      <path
         d="M8 4 l-4,4"
         stroke="#000000"
         stroke-width="0.25"
         linecap="square"
         id="path2" />
      <path
         d="M6 2 l-4,4"
         stroke="#000000"
         stroke-width="0.25"
         linecap="square"
         id="path3" />
      <path
         d="M4 0 l-4,4"
         stroke="#000000"
         stroke-width="0.25"
         linecap="square"
         id="path4" />
    </pattern>
    <symbol
       id="*MODEL_SPACE" />
    <symbol
       id="*PAPER_SPACE" />
  </defs>
  <g
     inkscape:groupmode="layer"
     inkscape:label="0"
     id="g4" />
  <g
     inkscape:groupmode="layer"
     inkscape:label="Design Layer-1"
     id="g30">
    <path
       style="fill:#4d4d4d;stroke-width:0.420414"
       d="m 101.1068,678.57548 c -3.266337,-0.99357 -5.958474,-3.40625 -7.473384,-6.69761 -0.872909,-1.89652 -1.006332,-2.69978 -0.837979,-5.04497 0.117126,-1.63158 0.560663,-3.49512 1.06862,-4.48985 1.290228,-2.52664 4.243206,-5.04208 6.903603,-5.88069 2.22975,-0.70287 3.39189,-0.64836 52.70653,2.47205 27.73458,1.75492 69.25053,4.37915 92.25768,5.83163 23.00714,1.45248 41.26361,2.68912 40.56993,2.74808 -1.23151,0.10469 -15.91705,1.03746 -91.01959,5.78121 -20.23241,1.27796 -48.68691,3.07717 -63.23221,3.99826 -27.48732,1.74064 -29.2016,1.81166 -30.9432,1.28189 z"
       id="path30" />
    <path
       d="m 109.22498,667.0999 a 5.1102315,5.1102315 0 0 1 -10.220462,0 5.1102315,5.1102315 0 0 1 10.220462,0 z"
       style="fill:#1a1a1a"
       id="path28" />
  </g>
</svg>
